. 
  
http://www.torrentday.com/        :     The Hottest Private Tracker On The Net!!!
 
http://www.torrentday.com          :     Once & For all ;)


               www . TorrentDay . Com 

(((((((((((((= Enjoy No RAR releases =))))))))))))))))))))


...................................NFO:....................................

.[img]http://www.leetleech.org/images/22711995422100829499.jpg[/img]

::::::::::::::Enjoy:Another:Release:From:T0XiC::::::::::::::

File:: Rabbit.Hole.2010.WEBSCR.720p.AC3.XViD-T0XiC-iNK
Video Source:: ....mf34inc
Audio Source:: ....own custom 5.1
Language::English
IMDB::http://www.imdb.com/title/tt0935075/

Life for a happy couple is turned upside down after their young son 
dies in an accident. Based on a play by David Lindsay-Abaire.

Specs::

General

Format                           : AVI
Format/Info                      : Audio Video Interleave
Format profile                   : OpenDML
File size                        : 2.08 GiB
Duration                         : 1h 31mn
Overall bit rate                 : 3 261 Kbps
Writing application              : VirtualDubMod 1.5.10.2 (build 2540/release)
Writing library                  : VirtualDubMod build 2540/release

Video
ID                               : 0
Format                           : MPEG-4 Visual
Format profile                   : Advanced Simple@L5
Format settings, BVOP            : Yes
Format settings, QPel            : No
Format settings, GMC             : No warppoints
Format settings, Matrix          : Default (MPEG)
Muxing mode                      : Packed bitstream
Codec ID                         : XVID
Codec ID/Hint                    : XviD
Duration                         : 1h 31mn
Bit rate                         : 2 801 Kbps
Width                            : 1 280 pixels
Height                           : 716 pixels
Display aspect ratio             : 16:9
Frame rate                       : 23.976 fps
Color space                      : YUV
Chroma subsampling               : 4:2:0
Bit depth                        : 8 bits
Scan type                        : Progressive
Bits/(Pixel*Frame)               : 0.127
Stream size                      : 1.79 GiB (86%)
Writing library                  : XviD 1.2.1 (UTC 2008-12-04)

Audio
ID                               : 1
Format                           : AC-3
Format/Info                      : Audio Coding 3
Mode extension                   : CM (complete main)
Codec ID                         : 2000
Duration                         : 1h 31mn
Bit rate mode                    : Constant
Bit rate                         : 448 Kbps
Channel(s)                       : 6 channels
Channel positions                : Front: L C R, Side: L R, LFE
Sampling rate                    : 48.0 KHz
Bit depth                        : 16 bits
Stream size                      : 293 MiB (14%)
Alignment                        : Split accross interleaves
Interleave, duration             : 42 ms (1.00 video frame)
Interleave, preload duration     : 500 ms


NOTES:: The first 720p XViD WEBSCR release of Rabbit Hole, resynced with custom 5.1 (original audio from source
sucks). Enjoy


::Why Complain? Whats Free Is Free::

::iNK is currently a free agent looking for work, if you would like iNK's touch, give me a email at: ...digital.ink@live.com or MSN add me.

::We are always looking for friends with unreleased DVD's, Screeners, R5's, Audio, Cams, Silvers,
...and any other good sources you may have to offer - contact us: t0xicreleases@hushmail.com

::::::::::::::::::::::::::::::::::::   Respect To   :::::::::::::::::::::::::::::::::::::
::IMAGiNE,FLAWL3SS,Hive-CM8,DiGiTALiNK,Tranz,Vik,OneTwo,bob,& our friends on utn and PA::
                       "and to all of you who support us, Thank-You"

[img]http://www.leetleech.org/images/94121510279796120418.png[/img]
[img]http://www.leetleech.org/images/91047330155008180013.png[/img]
[img]http://www.leetleech.org/images/26167653056485387214.png[/img]
[img]http://www.leetleech.org/images/40473740187595734348.png[/img]
[img]http://www.leetleech.org/images/38184768412103409197.png[/img]